<?xml version="1.0" encoding="UTF-8" standalone="no"?>
<!DOCTYPE svg PUBLIC "-//W3C//DTD SVG 1.1//EN" "http://www.w3.org/Graphics/SVG/1.1/DTD/svg11.dtd">
<svg version="1.1" xmlns="http://www.w3.org/2000/svg" xmlns:xlink="http://www.w3.org/1999/xlink" preserveAspectRatio="xMidYMid meet" viewBox="0 0 640 640" width="640" height="640"><defs><path d="M399.93 365.62C399.93 379.64 388.55 391.02 374.53 391.02C360.51 391.02 349.13 379.64 349.13 365.62C349.13 351.6 360.51 340.22 374.53 340.22C388.55 340.22 399.93 351.6 399.93 365.62Z" id="b2QcrBcV0"></path><path d="M386.04 365.62C386.04 371.97 380.88 377.13 374.53 377.13C368.18 377.13 363.02 371.97 363.02 365.62C363.02 359.27 368.18 354.11 374.53 354.11C380.88 354.11 386.04 359.27 386.04 365.62Z" id="b1kLhs6aCA"></path><path d="M501.38 224.68C506.82 224.68 511.22 229.09 511.22 234.53C511.22 261.62 511.22 333.06 511.22 360.16C511.22 365.59 506.82 370 501.38 370C427.32 370 214.97 370 140.91 370C135.47 370 131.06 365.59 131.06 360.16C131.06 333.06 131.06 261.62 131.06 234.53C131.06 229.09 135.47 224.68 140.91 224.68C214.97 224.68 427.32 224.68 501.38 224.68Z" id="b8M710PlW"></path><path d="M209.85 365.62C209.85 379.64 198.47 391.02 184.46 391.02C170.44 391.02 159.06 379.64 159.06 365.62C159.06 351.6 170.44 340.22 184.46 340.22C198.47 340.22 209.85 351.6 209.85 365.62Z" id="gnygI2Qno"></path><path d="M195.96 365.62C195.96 371.97 190.81 377.13 184.46 377.13C178.11 377.13 172.95 371.97 172.95 365.62C172.95 359.27 178.11 354.11 184.46 354.11C190.81 354.11 195.96 359.27 195.96 365.62Z" id="naGQg9y1C"></path><path d="M252.57 224.68L252.57 370C192.49 370 154.95 370 139.93 370C135.07 370 131.14 366.06 131.14 361.21C131.14 333.9 131.14 260.78 131.14 233.48C131.14 228.62 135.07 224.68 139.93 224.68C154.95 224.68 192.49 224.68 252.57 224.68Z" id="e1xhQIdjwO"></path><path d="M495.52 244.32C499.75 244.32 503.17 247.75 503.17 251.98C503.17 260.61 503.17 280.31 503.17 289.31C503.17 292.51 500.57 295.12 497.36 295.12C484.2 295.12 450.19 295.12 436.95 295.12C433.98 295.12 431.57 292.71 431.57 289.74C431.57 280.65 431.57 259.13 431.57 250.13C431.57 246.92 434.17 244.32 437.38 244.32C450.54 244.32 482.73 244.32 495.52 244.32Z" id="a2so4Sgz1"></path><path d="M242.2 243.88C245.16 243.88 247.57 246.28 247.57 249.24C247.57 259.12 247.57 283.39 247.57 293.27C247.57 296.23 245.16 298.64 242.2 298.64C220.99 298.64 162.72 298.64 141.5 298.64C138.54 298.64 136.14 296.23 136.14 293.27C136.14 283.39 136.14 259.12 136.14 249.24C136.14 246.28 138.54 243.88 141.5 243.88C162.72 243.88 220.99 243.88 242.2 243.88Z" id="b1Udrklebi"></path><path d="M469.42 321.58L511.17 319.98C511.37 342.44 511.49 356.48 511.54 362.09C511.58 365.66 509.12 368.77 505.65 369.57C505.4 369.63 504.78 369.77 503.79 370L370.7 370.03C371.51 368.95 372.02 368.28 372.22 368.01C391.95 341.84 421.93 325.38 454.59 322.77C456.57 322.61 461.51 322.21 469.42 321.58Z" id="ci1INclik"></path><path d="M252.45 372.22L370.59 372.22C382.55 356.69 396.71 344.81 413.08 336.58C413.21 336.51 413.36 336.43 413.53 336.34C426.3 329.08 440.45 324.58 455.06 323.13C455.06 323.13 455.06 323.13 455.06 323.13C457.16 322.92 462.9 322.48 472.27 321.79L443.79 302.22L252.45 302.22L252.45 372.22Z" id="b1JAOktVbz"></path><path d="M481.3 370C481.3 384.02 469.92 395.4 455.91 395.4C441.89 395.4 430.51 384.02 430.51 370C430.51 355.98 441.89 344.6 455.91 344.6C469.92 344.6 481.3 355.98 481.3 370Z" id="b1d3raKeSj"></path><path d="M467.41 370C467.41 376.35 462.26 381.51 455.91 381.51C449.55 381.51 444.4 376.35 444.4 370C444.4 363.65 449.55 358.49 455.91 358.49C462.26 358.49 467.41 363.65 467.41 370Z" id="a1zgK9Lkd5"></path><path d="M315.95 370.77C315.95 356.76 304.57 345.38 290.55 345.38C276.53 345.38 265.15 356.76 265.15 370.77C265.15 384.79 276.53 396.17 290.55 396.17C304.57 396.17 315.95 384.79 315.95 370.77Z" id="bxGQp50nE"></path><path d="M302.06 370.77C302.06 364.42 296.9 359.26 290.55 359.26C284.2 359.26 279.04 364.42 279.04 370.77C279.04 377.12 284.2 382.28 290.55 382.28C296.9 382.28 302.06 377.12 302.06 370.77Z" id="a1x1irYXLH"></path><path d="M242.36 337.58C242.89 337.58 243.31 338 243.31 338.53C243.31 340.39 243.31 344.72 243.31 346.51C243.31 347.24 242.71 347.84 241.98 347.84C238.31 347.84 228.59 347.84 224.91 347.84C224.21 347.84 223.65 347.28 223.65 346.58C223.65 344.78 223.65 340.81 223.65 339.05C223.65 338.24 224.3 337.58 225.12 337.58C228.75 337.58 238.62 337.58 242.36 337.58Z" id="a2fxDTcQ8h"></path><path d="M331.1 244.86C335.33 244.86 338.76 248.29 338.76 252.52C338.76 261.14 338.76 280.85 338.76 289.84C338.76 293.05 336.16 295.65 332.95 295.65C319.79 295.65 285.78 295.65 272.53 295.65C269.56 295.65 267.15 293.24 267.15 290.27C267.15 281.19 267.15 259.67 267.15 250.67C267.15 247.46 269.76 244.86 272.96 244.86C286.12 244.86 318.31 244.86 331.1 244.86Z" id="dzm4cpYG2"></path><path d="M214.45 298.1L206.85 298.1L226.71 243.34L234.52 243.34L214.45 298.1Z" id="bfGvEcp5B"></path><path d="M200.02 298.1L180.52 298.1L205.2 243.34L221.52 243.34L200.02 298.1Z" id="pPBEwx9aK"></path><path d="M264.87 242.36L264.87 250.89L264.87 257.95L257.27 257.95C257.1 249.84 256.99 244.77 256.95 242.74C256.94 242.53 257.11 242.36 257.32 242.36C258.33 242.36 260.84 242.36 264.87 242.36Z" id="a2UKeZ8SjN"></path><path d="M127.12 257.95C127.33 257.95 127.5 257.78 127.5 257.57C127.5 254.53 127.5 245.78 127.5 242.74C127.5 242.53 127.33 242.36 127.12 242.36C125.61 242.36 121.61 242.36 120.13 242.36C119.82 242.36 119.57 242.61 119.57 242.92C119.57 245.92 119.57 254.53 119.57 257.57C119.57 257.78 119.75 257.95 119.96 257.95C121.47 257.95 125.61 257.95 127.12 257.95Z" id="a5nIntTtv"></path><path d="M260.29 242.21C260.63 242.21 260.91 242.49 260.91 242.83C260.91 243.89 260.91 246.45 260.91 247.51C260.91 247.86 260.63 248.14 260.29 248.14C257.82 248.14 251.29 248.14 248.89 248.14C248.39 248.14 247.98 247.73 247.98 247.23C247.98 246.22 247.98 243.89 247.98 242.83C247.98 242.49 248.26 242.21 248.6 242.21C251.06 242.21 257.82 242.21 260.29 242.21Z" id="a6CVMIVc4W"></path><path d="M133.34 242.36C133.69 242.36 133.97 242.64 133.97 242.98C133.97 244.04 133.97 246.6 133.97 247.66C133.97 248.01 133.69 248.29 133.34 248.29C130.88 248.29 124.35 248.29 121.95 248.29C121.45 248.29 121.04 247.88 121.04 247.38C121.04 246.38 121.04 244.04 121.04 242.98C121.04 242.64 121.32 242.36 121.66 242.36C124.12 242.36 130.88 242.36 133.34 242.36Z" id="d6BGEFFCqA"></path><path d="M414.85 244.32C419.08 244.32 422.51 247.75 422.51 251.98C422.51 260.61 422.51 280.31 422.51 289.31C422.51 292.51 419.91 295.12 416.7 295.12C402.57 295.12 365.66 295.12 351.45 295.12C348.48 295.12 346.07 292.71 346.07 289.74C346.07 280.65 346.07 259.13 346.07 250.13C346.07 246.92 348.67 244.32 351.88 244.32C366 244.32 401.1 244.32 414.85 244.32Z" id="fxx33Za1a"></path><path d="M157.78 337.22C158.49 337.22 159.06 337.79 159.06 338.5C159.06 340.3 159.06 344.36 159.06 346.15C159.06 346.89 158.46 347.48 157.73 347.48C154.06 347.48 144.36 347.48 140.68 347.48C139.97 347.48 139.4 346.91 139.4 346.2C139.4 344.4 139.4 340.3 139.4 338.51C139.4 337.8 139.97 337.22 140.69 337.22C144.36 337.22 154.1 337.22 157.78 337.22Z" id="c14UWejbky"></path></defs><g><g><g><g><use xlink:href="#b2QcrBcV0" opacity="1" fill="#171717" fill-opacity="1"></use></g><g><use xlink:href="#b1kLhs6aCA" opacity="1" fill="#ffffff" fill-opacity="1"></use></g></g><g><use xlink:href="#b8M710PlW" opacity="1" fill="#d7513d" fill-opacity="1"></use></g><g><g><use xlink:href="#gnygI2Qno" opacity="1" fill="#171717" fill-opacity="1"></use></g><g><use xlink:href="#naGQg9y1C" opacity="1" fill="#ffffff" fill-opacity="1"></use></g></g><g><use xlink:href="#e1xhQIdjwO" opacity="1" fill="#e25a47" fill-opacity="1"></use></g><g><use xlink:href="#a2so4Sgz1" opacity="1" fill="#000000" fill-opacity="0.75"></use></g><g><use xlink:href="#b1Udrklebi" opacity="1" fill="#000000" fill-opacity="0.75"></use></g><g><use xlink:href="#ci1INclik" opacity="1" fill="#733461" fill-opacity="1"></use><g><use xlink:href="#ci1INclik" opacity="1" fill-opacity="0" stroke="#000000" stroke-width="1" stroke-opacity="0"></use></g></g><g><use xlink:href="#b1JAOktVbz" opacity="1" fill="#ffffff" fill-opacity="1"></use><g><use xlink:href="#b1JAOktVbz" opacity="1" fill-opacity="0" stroke="#000000" stroke-width="1" stroke-opacity="0"></use></g></g><g><g><use xlink:href="#b1d3raKeSj" opacity="1" fill="#171717" fill-opacity="1"></use></g><g><use xlink:href="#a1zgK9Lkd5" opacity="1" fill="#ffffff" fill-opacity="1"></use></g></g><g><g><use xlink:href="#bxGQp50nE" opacity="1" fill="#171717" fill-opacity="1"></use></g><g><use xlink:href="#a1x1irYXLH" opacity="1" fill="#ffffff" fill-opacity="1"></use></g></g><g><use xlink:href="#a2fxDTcQ8h" opacity="1" fill="#ffffff" fill-opacity="0.7"></use></g><g><use xlink:href="#dzm4cpYG2" opacity="1" fill="#000000" fill-opacity="0.75"></use></g><g><use xlink:href="#bfGvEcp5B" opacity="0.44" fill="#9b7d7d" fill-opacity="0.75"></use><g><use xlink:href="#bfGvEcp5B" opacity="0.44" fill-opacity="0" stroke="#613939" stroke-width="0" stroke-opacity="1"></use></g></g><g><use xlink:href="#pPBEwx9aK" opacity="0.44" fill="#9b7d7d" fill-opacity="0.75"></use><g><use xlink:href="#pPBEwx9aK" opacity="0.44" fill-opacity="0" stroke="#613939" stroke-width="0" stroke-opacity="1"></use></g></g><g><use xlink:href="#a2UKeZ8SjN" opacity="1" fill="#e25a47" fill-opacity="1"></use></g><g><use xlink:href="#a5nIntTtv" opacity="1" fill="#e25a47" fill-opacity="1"></use></g><g><use xlink:href="#a6CVMIVc4W" opacity="1" fill="#e25a47" fill-opacity="1"></use></g><g><use xlink:href="#d6BGEFFCqA" opacity="1" fill="#e25a47" fill-opacity="1"></use></g><g><use xlink:href="#fxx33Za1a" opacity="1" fill="#000000" fill-opacity="0.75"></use></g><g><use xlink:href="#c14UWejbky" opacity="1" fill="#ffffff" fill-opacity="0.7"></use></g></g></g></svg>